<svg style="position: absolute; width: 0; height: 0;" width="0" height="0" version="1.1" xmlns="http://www.w3.org/2000/svg" xmlns:xlink="http://www.w3.org/1999/xlink"><defs><symbol id=".null" viewBox="0 -674 2048 2048"><path d=""></path></symbol><symbol id="nonmarkingreturn" viewBox="0 -674 2048 2048"><path d=""></path></symbol><symbol id="uniF002" viewBox="0 -674 2048 2048"><path d="M0 1374 q0 144 70.5 266 q70.5 122 191.5 192.5 q121 70.5 264 70.5 l1155 0 q143 0 265 -70.5 q122 -70.5 193 -192.5 q71 -122 71 -266 q0 -106 -45 -213 q122 -149 122 -353 q0 -114 -44 -217.5 q-44 -103.5 -119 -178.5 q-75 -75 -178.5 -119 q-103.5 -44 -217.5 -44 q-237 0 -414 186 q-124 -70 -288 -70 q-225 0 -398 139.5 q-173 139.5 -222 357.5 q-179 41 -292.5 184 q-113.5 143 -113.5 328 ZM182 1374 q0 -134 89.5 -231 q89.5 -97 224.5 -113 l53 -3 q20 0 20 -19 l7 -58 q22 -173 150 -289.5 q128 -116.5 300 -116.5 q176 0 306.5 117 q130.5 117 146.5 289 l8 62 q4 18 22 18 l172 0 q141 0 243 102 q102 102 102 242 q0 145 -101.5 247.5 q-101.5 102.5 -243.5 102.5 l-1155 0 q-140 0 -242 -103.5 q-102 -103.5 -102 -246.5 ZM897 65 q0 39 26 67 l70 68 q40 30 68 27 q33 0 59 -27.5 q26 -27.5 26 -66.5 q0 -39 -28 -63 l-63 -70 q-29 -26 -65 -26 q-39 0 -66 26.5 q-27 26.5 -27 64.5 ZM1467 537 q111 -107 261 -107 q158 0 268.5 110 q110.5 110 110.5 268 q0 100 -54 196 q-155 -153 -372 -153 l-34 0 q-40 -174 -180 -314 ZM1640 -26 q0 41 25 66 q25 25 63 25 q41 0 66 -25 q25 -25 25 -66 l0 -218 q0 -38 -25.5 -63 q-25.5 -25 -65.5 -25 q-38 0 -63 25 q-25 25 -25 63 l0 218 ZM2229 219 q0 41 24 66 q34 26 66 26 q29 0 63 -26 l153 -153 q26 -29 26 -68 q0 -38 -26 -64 q-26 -26 -63 -26 q-38 0 -62 26 l-157 153 q-24 29 -24 66 ZM2341 1548 l69 67 q24 26 62 26 q38 0 63.5 -26.5 q25.5 -26.5 25.5 -66.5 q0 -36 -26 -62 l-69 -69 q-26 -26 -61 -26 q-38 0 -64.5 26 q-26.5 26 -26.5 64 q0 38 27 67 ZM2498 870 q26 26 65 26 l218 0 q37 0 61.5 -25 q24.5 -25 24.5 -63 q0 -38 -24.5 -64.5 q-24.5 -26.5 -61.5 -26.5 l-218 0 q-38 0 -65.5 27 q-27.5 27 -27.5 64 q0 37 28 62 Z"></path></symbol><symbol id="uniF00C" viewBox="0 -674 2048 2048"><path d="M0 917 q0 43 30 71 q30 28 77 28 l180 0 q43 0 73.5 -28.5 q30.5 -28.5 30.5 -70.5 q0 -46 -30 -76 q-30 -30 -74 -30 l-180 0 q-47 0 -77 29.5 q-30 29.5 -30 76.5 ZM189 1577 q0 155 113 268.5 q113 113.5 268 113.5 l732 0 q155 0 265.5 -112 q110.5 -112 110.5 -270 q0 -77 -22 -131 q133 -85 210.5 -226.5 q77.5 -141.5 77.5 -302.5 q0 -130 -51 -248.5 q-51 -118.5 -136.5 -204 q-85.5 -85.5 -204 -136.5 q-118.5 -51 -247.5 -51 q-175 0 -322.5 86 q-147.5 86 -232 233 q-84.5 147 -84.5 321 l0 36 q-160 91 -211 266 q-121 38 -193.5 135 q-72.5 97 -72.5 223 ZM355 66 q0 45 28 72 l172 180 q75 57 150 0 q30 -30 30 -75 q0 -43 -30 -75 l-176 -175 q-34 -31 -74 -31 q-45 0 -72.5 30 q-27.5 30 -27.5 74 ZM400 1577 q0 -67 43 -115 q43 -48 109 -54 l66 -9 q21 0 21 -24 l10 -60 q11 -92 78 -154 q67 -62 158 -62 q93 0 161.5 62 q68.5 62 79.5 154 l9 69 q10 24 26 24 l141 0 q69 0 119.5 50 q50.5 50 50.5 119 q0 72 -50.5 123 q-50.5 51 -119.5 51 l-732 0 q-72 0 -121 -51 q-49 -51 -49 -123 ZM872 895 q11 -175 135 -294 q124 -119 298 -119 q178 0 303 127 q125 127 125 308 q0 112 -54.5 207.5 q-54.5 95.5 -147.5 154.5 q-94 -78 -217 -78 q-47 -140 -164 -223 q-117 -83 -265 -83 l-13 0 ZM1201 -38 q0 44 30.5 74.5 q30.5 30.5 73.5 30.5 q44 0 74.5 -30.5 q30.5 -30.5 30.5 -74.5 l0 -250 q0 -42 -30.5 -70.5 q-30.5 -28.5 -74.5 -28.5 q-43 0 -73.5 28.5 q-30.5 28.5 -30.5 70.5 l0 250 ZM1904 1661 l175 173 q67 68 150 0 q28 -27 28 -72 q0 -43 -28 -71 l-180 -179 q-29 -27 -73 -27 q-44 0 -72.5 29 q-28.5 29 -28.5 72 q0 43 29 75 ZM1875 241 q0 45 29 77 q29 29 72 29 q44 0 73 -29 l180 -180 q28 -27 28 -72 q0 -44 -30.5 -74 q-30.5 -30 -74.5 -30 q-42 0 -73 31 l-175 175 q-29 29 -29 73 ZM2151 917 q0 43 30 71 q30 28 77 28 l180 0 q43 0 73.5 -28.5 q30.5 -28.5 30.5 -70.5 q0 -46 -30 -76 q-30 -30 -74 -30 l-180 0 q-47 0 -77 29.5 q-30 29.5 -30 76.5 Z"></path></symbol><symbol id="uniF00D" viewBox="0 -674 2048 2048"><path d="M0 785 q0 37 27 64 q27 27 64 27 l218 0 q37 0 61.5 -26.5 q24.5 -26.5 24.5 -64.5 q0 -38 -24.5 -65 q-24.5 -27 -61.5 -27 l-218 0 q-36 0 -64 26 q-27 27 -27 66 ZM305 1524 q0 36 25 63 q66 51 131 0 l152 -152 q26 -29 26 -68 q0 -37 -25.5 -61 q-25.5 -24 -63.5 -24 q-39 0 -63 25 l-157 152 q-25 28 -25 65 ZM305 47 q0 39 25 66 l157 152 q24 26 63 26 q38 0 63.5 -25.5 q25.5 -25.5 25.5 -63.5 q0 -39 -26 -63 l-152 -157 q-28 -26 -63 -26 q-37 0 -68 26 q-25 28 -25 65 ZM577 785 q0 150 75 278 q75 128 203 202.5 q128 74.5 278 74.5 q150 0 278 -74.5 q128 -74.5 202.5 -202.5 q74.5 -128 74.5 -278 q0 -112 -44 -215 q-44 -103 -118.5 -177.5 q-74.5 -74.5 -177.5 -119 q-103 -44.5 -215 -44.5 q-149 0 -277.5 75 q-128.5 75 -203.5 203.5 q-75 128.5 -75 277.5 ZM758 785 q0 -154 110 -263 q110 -109 265 -109 q156 0 266.5 109 q110.5 109 110.5 263 q0 156 -110.5 266.5 q-110.5 110.5 -266.5 110.5 q-156 0 -265.5 -110.5 q-109.5 -110.5 -109.5 -266.5 ZM1042 1826 q0 39 26.5 66 q26.5 27 64.5 27 q38 0 64.5 -27 q26.5 -27 26.5 -66 l0 -212 q0 -38 -26 -64 q-26 -26 -65 -26 q-38 0 -64.5 26 q-26.5 26 -26.5 64 l0 212 ZM1042 -39 q0 37 26.5 61.5 q26.5 24.5 64.5 24.5 q38 0 64.5 -24.5 q26.5 -24.5 26.5 -61.5 l0 -218 q0 -37 -27 -64 q-27 -27 -64 -27 q-37 0 -64 27 q-27 27 -27 64 l0 218 ZM1631 1367 q0 41 24 68 l152 152 q64 50 128 0 q26 -26 26 -63 q0 -37 -26 -65 l-156 -152 q-25 -25 -64 -25 q-36 0 -60 25 q-24 23 -24 60 ZM1631 202 q0 38 24 63.5 q24 25.5 60 25.5 q35 0 64 -26 l156 -152 q26 -26 26 -66 q0 -37 -26.5 -64 q-26.5 -27 -64.5 -27 q-35 0 -63 26 l-152 157 q-24 23 -24 63 ZM1897 849.5 q25 26.5 62 26.5 l216 0 q37 0 64.5 -27 q27.5 -27 27.5 -64 q0 -37 -27.5 -64.5 q-27.5 -27.5 -64.5 -27.5 l-216 0 q-35 0 -61 26 q-26 28 -26 66 q0 38 25 64.5 Z"></path></symbol><symbol id="uniF013" viewBox="0 -674 2048 2048"><path d="M0 1108 q0 92 36 176.5 q36 84.5 97 145.5 q61 61 145.5 97 q84.5 36 176.5 36 l990 0 q188 0 321 -133.5 q133 -133.5 133 -321.5 q0 -188 -133 -320.5 q-133 -132.5 -321 -132.5 l-29 0 q-44 -182 -192.5 -298.5 q-148.5 -116.5 -337.5 -116.5 q-194 0 -343 119.5 q-149 119.5 -190 307.5 q-155 35 -254 158.5 q-99 123.5 -99 282.5 ZM155 1108 q0 -116 78 -201 q78 -85 193 -95 l48 -7 q17 0 17 -16 l7 -45 q14 -150 125.5 -250 q111.5 -100 262.5 -100 q151 0 261.5 99.5 q110.5 99.5 126.5 250.5 l7 52 q0 16 16 16 l148 0 q124 0 212 87 q88 87 88 209 q0 122 -88 209.5 q-88 87.5 -212 87.5 l-990 0 q-124 0 -212 -87.5 q-88 -87.5 -88 -209.5 ZM1099 178 q-16 15 8 22 q69 30 115 59 q18 5 24 -3 q97 -92 226 -92 q129 0 223.5 86.5 q94.5 86.5 105.5 213.5 l10 68 l151 0 q104 0 179 74.5 q75 74.5 75 177.5 q0 96 -66 167 q-66 71 -163 82 q-16 0 -16 17 l0 121 q0 17 16 17 q161 -10 272 -127 q111 -117 111 -277 q0 -169 -119.5 -288.5 q-119.5 -119.5 -288.5 -119.5 l-16 0 q-42 -160 -175.5 -263.5 q-133.5 -103.5 -298.5 -103.5 q-226 0 -373 169 Z"></path></symbol><symbol id="uniF014" viewBox="0 -674 2048 2048"><path d="M0 1304 q0 37 27 62 q27 25 67 25 l1991 0 q38 0 64.5 -25 q26.5 -25 26.5 -62 q0 -40 -25.5 -65.5 q-25.5 -25.5 -65.5 -25.5 l-1991 0 q-40 0 -67 26 q-27 26 -27 65 ZM279 969 q0 37 26.5 64 q26.5 27 64.5 27 l1992 0 q37 0 62 -26.5 q25 -26.5 25 -64.5 q0 -37 -25 -62.5 q-25 -25.5 -62 -25.5 l-1992 0 q-39 0 -63 24 q-28 25 -28 64 ZM293 715 q0 14 16 14 l153 0 q10 0 21 -17 q38 -83 113.5 -136 q75.5 -53 165.5 -60 l59 -8 q18 0 18 -19 l7 -53 q17 -173 146.5 -288.5 q129.5 -115.5 303.5 -115.5 q173 0 301.5 114 q128.5 114 146.5 286 l8 61 q0 18 21 18 l170 0 q103 0 187.5 55 q84.5 55 125.5 146 q11 17 22 17 l153 0 q19 0 15 -24 q-47 -164 -186 -268 q-139 -104 -317 -104 l-34 0 q-53 -213 -223.5 -348.5 q-170.5 -135.5 -389.5 -135.5 q-224 0 -398 140.5 q-174 140.5 -223 358.5 q-136 32 -238.5 129 q-102.5 97 -142.5 232 l0 -4 q-1 3 -1 10 ZM465 1631 q0 37 27.5 64.5 q27.5 27.5 64.5 27.5 l1993 0 q37 0 64 -27 q27 -27 27 -65 q0 -37 -26.5 -62 q-26.5 -25 -64.5 -25 l-1993 0 q-40 0 -64 24 q-28 25 -28 63 Z"></path></symbol><symbol id="uniF017" viewBox="0 -674 2048 2048"><path d="M0 706 q0 211 149 364 q149 153 361 160 q19 0 19 -18 l0 -142 q0 -19 -19 -19 q-135 -7 -232 -108.5 q-97 -101.5 -97 -236.5 q0 -134 90.5 -233.5 q90.5 -99.5 223.5 -110.5 l56 -8 q20 0 20 -19 l8 -53 q16 -175 145.5 -293 q129.5 -118 305.5 -118 q173 0 303 117 q130 117 149 289 l7 62 q0 19 20 19 l171 0 q144 0 247 103 q103 103 103 245 q0 135 -96.5 236.5 q-96.5 101.5 -232.5 108.5 q-21 0 -21 19 l0 142 q0 18 21 18 q213 -7 360.5 -159.5 q147.5 -152.5 147.5 -364.5 q0 -143 -71 -264.5 q-71 -121.5 -193 -192 q-122 -70.5 -265 -70.5 l-33 0 q-53 -214 -225 -350.5 q-172 -136.5 -392 -136.5 q-225 0 -400 140 q-175 140 -224 357 q-180 46 -293 188.5 q-113 142.5 -113 328.5 ZM577 1455 q0 27 17.5 54 q17.5 27 50.5 37 q37 11 68 -4 q31 -15 42 -60 l15 -65 q8 -36 -10 -67.5 q-18 -31.5 -55 -42.5 q-36 -11 -68.5 8 q-32.5 19 -42.5 57 l-15 63 q-2 6 -2 20 ZM658 1146 q0 34 27 61 q25 27 60 27 q38 0 64 -25.5 q26 -25.5 26 -62.5 q0 -37 -26 -62.5 q-26 -25.5 -64 -25.5 q-37 0 -62 25 q-25 25 -25 63 ZM723 903 q-2 25 14.5 48.5 q16.5 23.5 51.5 34.5 q33 10 66 -7.5 q33 -17.5 44 -54.5 l30 -96 q12 -39 -7 -69.5 q-19 -30.5 -58 -41.5 q-35 -11 -67.5 7 q-32.5 18 -43.5 53 l-26 98 q0 3 -2 12.5 q-2 9.5 -2 15.5 ZM847 1788 q0 28 16.5 53 q16.5 25 51.5 35 q13 3 27 3 q68 0 84 -65 l15 -63 q10 -41 -9 -73 q-19 -32 -56 -39 q-34 -11 -67 7.5 q-33 18.5 -44 54.5 l-15 63 q-3 14 -3 24 ZM930 1478 q0 35 27 62 q26 26 61 26 q38 0 63 -25 q25 -25 25 -63 q0 -37 -25 -62 q-25 -25 -63 -25 q-38 0 -63 25 q-25 25 -25 62 ZM997 1236 q-2 24 14 50 q16 26 48 32 q37 10 68 -6 q31 -16 44 -60 l29 -96 q11 -35 -7.5 -67 q-18.5 -32 -56.5 -43 q-35 -11 -68 8.5 q-33 19.5 -44 56.5 l-24 96 q-3 13 -3 29 ZM1291 1465 q0 26 16.5 51 q16.5 25 49.5 35 q5 0 14.5 2 q9.5 2 14.5 2 q65 0 81 -70 l15 -64 q11 -34 -7 -67 q-18 -33 -54 -44 q-40 -10 -72.5 8.5 q-32.5 18.5 -43.5 56.5 l-10 63 q0 4 -2 13 q-2 9 -2 14 ZM1370 1150 q0 36 27 61 q24 26 61 26 q38 0 63 -25 q25 -25 25 -62 q0 -38 -25 -63 q-25 -25 -63 -25 q-38 0 -63 25 q-25 25 -25 63 ZM1435 903 q0 27 17.5 51.5 q17.5 24.5 52.5 34.5 q3 0 13 2 q10 2 15 2 q16 0 38 -10 q34 -18 44 -56 l26 -96 q10 -36 -8 -67.5 q-18 -31.5 -54 -42.5 q-37 -11 -68 6 q-31 17 -42 54 l-30 97 q0 4 -2 12.5 q-2 8.5 -2 12.5 Z"></path></symbol><symbol id="uniF019" viewBox="0 -674 2048 2048"><path d="M0 726 q0 213 148.5 366 q148.5 153 362.5 163 q18 0 18 -18 l0 -142 q0 -19 -18 -19 q-137 -7 -233 -109 q-96 -102 -96 -241 q0 -132 90.5 -230 q90.5 -98 223.5 -114 l56 -3 q21 0 21 -20 l8 -57 q16 -173 145.5 -289.5 q129.5 -116.5 304.5 -116.5 q173 0 303.5 116.5 q130.5 116.5 148.5 289.5 l8 62 q0 18 19 18 l172 0 q142 0 246 102.5 q104 102.5 104 241.5 q0 139 -96.5 241 q-96.5 102 -232.5 109 q-21 0 -21 19 l0 142 q0 18 21 18 q139 -4 256 -76 q117 -72 184.5 -192.5 q67.5 -120.5 67.5 -260.5 q0 -143 -71 -263.5 q-71 -120.5 -193 -190 q-122 -69.5 -265 -69.5 l-34 0 q-52 -214 -224.5 -350.5 q-172.5 -136.5 -392.5 -136.5 q-225 0 -400 140 q-175 140 -225 358 q-176 41 -291 184.5 q-115 143.5 -115 327.5 ZM571 1439 q0 27 17 52.5 q17 25.5 52 35.5 q2 0 11 3 q6 2 12 2 q68 0 88 -68 l174 -611 q11 -39 -8.5 -71 q-19.5 -32 -57.5 -39 q-15 -3 -26 -3 q-25 0 -49.5 16 q-24.5 16 -34.5 47 l-174 615 q-4 14 -4 21 ZM851 1739 q-12 41 6 69 q23 34 55 42 q12 5 27 5 q29 0 54 -19 q25 -19 31 -46 l259 -937 q10 -37 -7 -68.5 q-17 -31.5 -52 -41.5 q-15 -3 -29 -3 q-27 0 -52 16 q-25 16 -32 47 l-260 936 ZM1291 1442 q0 25 17 50.5 q17 25.5 49 34.5 l26 5 q30 0 54 -18.5 q24 -18.5 30 -49.5 l174 -611 q0 -3 2 -12.5 q2 -9.5 2 -14.5 q0 -26 -16.5 -50 q-16.5 -24 -49.5 -33 q-15 -3 -28 -3 q-26 0 -49.5 16 q-23.5 16 -32.5 47 l-174 615 q-4 18 -4 24 Z"></path></symbol><symbol id="uniF01B" viewBox="0 -674 2048 2048"><path d="M0 734 q0 212 148.5 365 q148.5 153 362.5 160 q18 0 18 -18 l0 -142 q0 -19 -18 -19 q-136 -7 -232.5 -108.5 q-96.5 -101.5 -96.5 -237.5 q0 -134 90.5 -233.5 q90.5 -99.5 223.5 -110.5 l56 -7 q21 0 21 -20 l6 -53 q17 -175 146.5 -293 q129.5 -118 305.5 -118 q173 0 303.5 117 q130.5 117 148.5 290 l8 62 q0 18 19 18 l172 0 q144 0 247 103 q103 103 103 245 q0 136 -96.5 237.5 q-96.5 101.5 -232.5 108.5 q-21 0 -21 19 l0 142 q0 18 21 18 q212 -7 360 -160 q148 -153 148 -365 q0 -143 -71 -264.5 q-71 -121.5 -193 -192 q-122 -70.5 -265 -70.5 l-34 0 q-52 -214 -224.5 -350.5 q-172.5 -136.5 -392.5 -136.5 q-226 0 -400.5 140 q-174.5 140 -224.5 358 q-179 44 -292.5 187.5 q-113.5 143.5 -113.5 328.5 ZM679 1168 q0 38 25.5 64.5 q25.5 26.5 62.5 26.5 q37 0 62.5 -26.5 q25.5 -26.5 25.5 -64.5 q0 -36 -25.5 -62 q-25.5 -26 -62.5 -26 q-37 0 -62.5 26 q-25.5 26 -25.5 62 ZM704.5 1618 q25.5 25 62.5 25 q37 0 62.5 -25 q25.5 -25 25.5 -63 q0 -38 -25.5 -63 q-25.5 -25 -62.5 -25 q-37 0 -62 24 q-26 26 -26 64 q0 38 25.5 63 ZM1045 1437.5 q26 26.5 62 26.5 q38 0 65 -26.5 q27 -26.5 27 -63.5 q0 -37 -27.5 -64.5 q-27.5 -27.5 -64.5 -27.5 q-35 0 -61 26 q-27 29 -27 66 q0 37 26 63.5 ZM1045 1050.5 q26 25.5 62 25.5 q38 0 65 -25.5 q27 -25.5 27 -62.5 q0 -37 -27 -63.5 q-27 -26.5 -65 -26.5 q-33 0 -61 26 q-27 27 -27 64 q0 37 26 62.5 ZM1019 1764 q0 37 26 62.5 q26 25.5 62 25.5 q38 0 65 -25.5 q27 -25.5 27 -62.5 q0 -37 -27 -64 q-27 -27 -65 -27 q-35 0 -61 26 q-27 29 -27 65 ZM1363 1168 q0 37 26.5 64 q26.5 27 64.5 27 q37 0 62.5 -26.5 q25.5 -26.5 25.5 -64.5 q0 -36 -25.5 -62 q-25.5 -26 -62.5 -26 q-37 0 -64 26.5 q-27 26.5 -27 61.5 ZM1363 1555 q0 37 26.5 62.5 q26.5 25.5 64.5 25.5 q38 0 63 -25 q25 -25 25 -63 q0 -38 -25 -63 q-25 -25 -63 -25 q-38 0 -64 24 q-27 29 -27 64 Z"></path></symbol><symbol id="uniF01E" viewBox="0 -674 2048 2048"><path d="M0 707 q0 177 106 317 q106 140 275 191 l-70 179 q-5 23 15 23 l227 0 l-105 459 l30 0 l418 -613 q6 -7 1.5 -14.5 q-4.5 -7.5 -15.5 -7.5 l-232 0 l264 -495 q11 -23 -15 -23 l-314 0 q-15 0 -25 16 l-114 306 q-114 -29 -189 -124 q-75 -95 -75 -214 q0 -133 90.5 -231 q90.5 -98 224.5 -114 l56 -7 q21 0 21 -19 l7 -54 q17 -173 146.5 -290 q129.5 -117 304.5 -117 q174 0 304.5 117 q130.5 117 149.5 290 l7 62 q0 18 19 18 l171 0 q145 0 248 101.5 q103 101.5 103 243.5 q0 136 -95 235.5 q-95 99.5 -235 110.5 q-21 0 -21 19 l0 146 q0 18 21 18 q213 -7 361.5 -161 q148.5 -154 148.5 -368 q0 -144 -71 -265.5 q-71 -121.5 -193.5 -192 q-122.5 -70.5 -266.5 -70.5 l-33 0 q-53 -213 -225.5 -348 q-172.5 -135 -392.5 -135 q-226 0 -401 140 q-175 140 -224 358 q-177 41 -292 184.5 q-115 143.5 -115 328.5 ZM869 1743 q0 63 62 82 q2 0 12 1.5 q10 1.5 15 1.5 q27 0 52.5 -15.5 q25.5 -15.5 34.5 -51.5 l240 -927 q10 -38 -7 -69 q-17 -31 -53 -42 q-27 -3 -28 -3 q-26 0 -50.5 16 q-24.5 16 -33.5 48 l-241 930 q-3 14 -3 29 ZM1312 1416 q0 21 11 40 q22 35 54 47 q17 5 32 5 q15 0 34 -8 q33 -14 45 -61 l154 -605 q5 -23 5 -29 q0 -24 -17 -48 q-17 -24 -49 -34 q-27 -3 -28 -3 q-27 0 -50 15.5 q-23 15.5 -32 48.5 l-156 608 q0 3 -1.5 11.5 q-1.5 8.5 -1.5 12.5 Z"></path></symbol><symbol id="uniF026" viewBox="0 -674 2048 2048"><path d="M0 820 q0 212 149 366 q149 154 363 161 q19 0 19 -18 l0 -143 q0 -18 -19 -18 q-136 -7 -233 -110 q-97 -103 -97 -238 q0 -136 90.5 -235.5 q90.5 -99.5 224.5 -110.5 l57 -7 q21 0 21 -19 l7 -54 q17 -176 146.5 -293.5 q129.5 -117.5 305.5 -117.5 q174 0 305.5 117 q131.5 117 149.5 290 l8 61 q0 20 18 20 l173 0 q145 0 248.5 103 q103.5 103 103.5 246 q0 88 -44 166.5 q-44 78.5 -120.5 127.5 q-76.5 49 -166.5 54 q-21 0 -21 18 l0 143 q0 18 21 18 q141 -4 258 -76 q117 -72 184.5 -191.5 q67.5 -119.5 67.5 -259.5 q0 -141 -73 -268 q133 -119 169 -280 l15 -73 q3 -3 3 -8 q0 -9 -18 -17 l-59 -19 q-92 -27 -157 -90.5 q-65 -63.5 -92.5 -133 q-27.5 -69.5 -27.5 -137.5 q-3 -34 10 -88 l14 -62 q7 -16 -14 -25 l-85 -26 q-65 -18 -138 -18 q-58 0 -119.5 14 q-61.5 14 -127 44 q-65.5 30 -127.5 86.5 q-62 56.5 -107 131.5 q-130 -49 -251 -49 q-226 0 -401.5 140.5 q-175.5 140.5 -225.5 359.5 q-180 46 -293.5 189 q-113.5 143 -113.5 329 ZM577 1572 q0 27 17.5 54 q17.5 27 50.5 37 q37 11 68 -4 q31 -15 42 -60 l15 -65 q8 -36 -10 -67.5 q-18 -31.5 -55 -42.5 q-36 -11 -68.5 8 q-32.5 19 -42.5 57 l-15 63 q-2 6 -2 20 ZM658 1263 q0 34 27 61 q25 27 60 27 q38 0 64 -25.5 q26 -25.5 26 -62.5 q0 -37 -26 -62.5 q-26 -25.5 -64 -25.5 q-37 0 -62 25 q-25 25 -25 63 ZM723 1020 q-2 25 14.5 48.5 q16.5 23.5 51.5 34.5 q33 10 66 -7.5 q33 -17.5 44 -54.5 l30 -96 q12 -39 -7 -69.5 q-19 -30.5 -58 -41.5 q-35 -11 -67.5 7 q-32.5 18 -43.5 53 l-26 98 q0 3 -2 12.5 q-2 9.5 -2 15.5 ZM847 1905 q0 28 16.5 53 q16.5 25 51.5 35 q13 3 27 3 q68 0 84 -65 l15 -63 q10 -41 -9 -73 q-19 -32 -56 -39 q-34 -11 -67 7.5 q-33 18.5 -44 54.5 l-15 63 q-3 14 -3 24 ZM930 1595 q0 35 27 62 q26 26 61 26 q38 0 63 -25 q25 -25 25 -63 q0 -37 -25 -62 q-25 -25 -63 -25 q-38 0 -63 25 q-25 25 -25 62 ZM997 1353 q-2 24 14 50 q16 26 48 32 q37 10 68 -6 q31 -16 44 -60 l29 -96 q11 -35 -7.5 -67 q-18.5 -32 -56.5 -43 q-35 -11 -68 8.5 q-33 19.5 -44 56.5 l-24 96 q-3 13 -3 29 ZM1291 1582 q0 26 16.5 51 q16.5 25 49.5 35 q5 0 14.5 2 q9.5 2 14.5 2 q65 0 81 -70 l15 -64 q11 -34 -7 -67 q-18 -33 -54 -44 q-40 -10 -72.5 8.5 q-32.5 18.5 -43.5 56.5 l-10 63 q0 4 -2 13 q-2 9 -2 14 ZM1370 1267 q0 36 27 61 q24 26 61 26 q38 0 63 -25 q25 -25 25 -62 q0 -38 -25 -63 q-25 -25 -63 -25 q-38 0 -63 25 q-25 25 -25 63 ZM1435 1020 q0 27 17.5 51.5 q17.5 24.5 52.5 34.5 q3 0 13 2 q10 2 15 2 q16 0 38 -10 q34 -18 44 -56 l26 -96 q10 -36 -8 -67.5 q-18 -31.5 -54 -42.5 q-37 -11 -68 6 q-31 17 -42 54 l-30 97 q0 4 -2 12.5 q-2 8.5 -2 12.5 ZM1442 -52 q51 -92 140 -142.5 q89 -50.5 184 -49.5 q15 0 32 3 l0 34 q-2 157 82.5 294.5 q84.5 137.5 236.5 206.5 q-31 65 -85 118 q-148 -122 -344 -122 l-33 0 q-50 -208 -213 -342 Z"></path></symbol><symbol id="uniF028" viewBox="0 -674 2048 2048"><path d="M0 834 q0 213 149 366.5 q149 153.5 363 163.5 q19 0 19 -18 l0 -143 q0 -18 -19 -18 q-137 -8 -233.5 -110 q-96.5 -102 -96.5 -241 q0 -133 90.5 -231.5 q90.5 -98.5 224.5 -114.5 l57 -4 q21 0 21 -18 l7 -58 q17 -173 147 -290.5 q130 -117.5 305 -117.5 q174 0 305 117.5 q131 117.5 149 290.5 l8 61 q0 19 18 19 l173 0 q143 0 247.5 102.5 q104.5 102.5 104.5 243.5 q0 139 -96.5 241 q-96.5 102 -233.5 110 q-22 0 -22 18 l0 143 q0 18 22 18 q213 -7 361 -161.5 q148 -154.5 148 -368.5 q0 -141 -73 -262 q129 -117 169 -279 l15 -77 q2 -1 2 -7 q0 -12 -17 -17 l-60 -19 q-91 -26 -156 -88.5 q-65 -62.5 -92.5 -131.5 q-27.5 -69 -27.5 -137 q-3 -36 9 -88 l15 -65 q7 -16 -15 -26 l-84 -26 q-72 -16 -135 -16 q-60 0 -122 14 q-62 14 -128 43.5 q-66 29.5 -128 85 q-62 55.5 -107 130.5 q-132 -48 -249 -48 q-226 0 -401.5 140.5 q-175.5 140.5 -225.5 359.5 q-177 41 -292 185 q-115 144 -115 329 ZM593 1563 q0 27 17.5 52.5 q17.5 25.5 52.5 35.5 q37 11 68.5 -4.5 q31.5 -15.5 42.5 -59.5 l153 -626 q10 -40 -9 -72 q-19 -32 -56 -39 q-35 -11 -67.5 7 q-32.5 18 -43.5 54 l-154 629 q0 2 -2 10 q-2 8 -2 13 ZM871 1891 q0 25 16.5 49 q16.5 24 47.5 33 q18 4 26 4 q70 0 87 -63 l240 -953 q10 -39 -7.5 -69.5 q-17.5 -30.5 -53.5 -41.5 q-37 -11 -70.5 7.5 q-33.5 18.5 -41.5 53.5 l-241 952 q0 2 -1.5 12.5 q-1.5 10.5 -1.5 15.5 ZM1315 1572 q0 57 67 79 q22 6 32 6 q18 0 37 -8 q33 -13 42 -62 l153 -626 q10 -38 -8 -69 q-18 -31 -54 -42 q-37 -11 -70 7 q-33 18 -41 54 l-153 629 q-5 28 -5 32 ZM1441 -33 q51 -93 139.5 -141.5 q88.5 -48.5 187.5 -46.5 q19 0 29 1 l0 32 q-2 155 82 293 q84 138 236 210 q-36 73 -84 114 q-147 -121 -344 -121 l-33 0 q-44 -203 -213 -341 Z"></path></symbol><symbol id="uniF02A" viewBox="0 -674 2048 2048"><path d="M0 843 q0 212 149 366 q149 154 363 161 q19 0 19 -18 l0 -143 q0 -18 -19 -18 q-136 -7 -233 -109.5 q-97 -102.5 -97 -238.5 q0 -136 90.5 -235 q90.5 -99 224.5 -110 l57 -8 q21 0 21 -18 l7 -55 q17 -175 146.5 -293 q129.5 -118 305.5 -118 q174 0 305 117.5 q131 117.5 149 290.5 l8 61 q0 19 18 19 l173 0 q145 0 248.5 103 q103.5 103 103.5 246 q0 136 -97 238.5 q-97 102.5 -233 109.5 q-22 0 -22 18 l0 143 q0 18 22 18 q140 -4 257 -76 q117 -72 184.5 -192 q67.5 -120 67.5 -259 q0 -146 -69 -265 q118 -106 162 -275 l18 -77 q2 -2 2 -8 q0 -12 -17 -17 l-65 -18 q-70 -21 -124.5 -61 q-54.5 -40 -86 -89.5 q-31.5 -49.5 -47 -101 q-15.5 -51.5 -15.5 -101.5 q0 -43 11 -92 l12 -66 q4 -15 -15 -24 l-85 -26 q-70 -17 -133 -17 q-59 0 -120 14 q-61 14 -126 44 q-65 30 -126 85.5 q-61 55.5 -106 130.5 q-129 -53 -254 -53 q-226 0 -401.5 140.5 q-175.5 140.5 -225.5 359.5 q-180 45 -293.5 188 q-113.5 143 -113.5 329 ZM681 1279 q0 38 25.5 64.5 q25.5 26.5 62.5 26.5 q38 0 63.5 -26.5 q25.5 -26.5 25.5 -64.5 q0 -36 -25.5 -62 q-25.5 -26 -63.5 -26 q-37 0 -62.5 26 q-25.5 26 -25.5 62 ZM681 1667 q0 36 26 62 q26 26 62 26 q38 0 63.5 -25 q25.5 -25 25.5 -63 q0 -38 -25.5 -63 q-25.5 -25 -63.5 -25 q-38 0 -63 25 q-25 25 -25 63 ZM1023 1486 q0 39 26 63 q26 26 62 26 q38 0 65 -26 q27 -26 27 -63 q0 -38 -27 -65.5 q-27 -27.5 -65 -27.5 q-35 0 -61.5 27.5 q-26.5 27.5 -26.5 65.5 ZM1023 1098 q0 38 26 62 q26 26 62 26 q39 0 65.5 -25 q26.5 -25 26.5 -63 q0 -37 -27 -63.5 q-27 -26.5 -65 -26.5 q-36 0 -62 26.5 q-26 26.5 -26 63.5 ZM1023 1878 q0 35 26 61 q27 27 62 27 q38 0 65 -25.5 q27 -25.5 27 -62.5 q0 -38 -27 -65.5 q-27 -27.5 -65 -27.5 q-35 0 -61.5 27.5 q-26.5 27.5 -26.5 65.5 ZM1368 1279 q0 38 26.5 64.5 q26.5 26.5 63.5 26.5 q37 0 62.5 -26.5 q25.5 -26.5 25.5 -64.5 q0 -36 -25.5 -62 q-25.5 -26 -62.5 -26 q-37 0 -63.5 26 q-26.5 26 -26.5 62 ZM1368 1667 q0 36 26 62 q26 26 64 26 q38 0 63 -25.5 q25 -25.5 25 -62.5 q0 -38 -25 -63 q-25 -25 -63 -25 q-38 0 -64 25 q-26 25 -26 63 ZM1441 -27 q50 -87 138.5 -134.5 q88.5 -47.5 182.5 -49.5 q24 0 35 2 l0 33 q0 155 83.5 292.5 q83.5 137.5 231.5 209.5 q-25 58 -81 114 q-142 -126 -344 -126 l-33 0 q-44 -197 -213 -341 Z"></path></symbol><symbol id="uniF02C" viewBox="0 -674 2048 2048"><path d="M0 823.07 q0 177 106 316.5 q106 139.5 275 190.5 l-69 181 q-7 22 15 22 l226 0 l-138 446 l30 0 l451 -600 q6 -7 2 -14.5 q-4 -7.5 -15 -7.5 l-232 0 l264 -495 q11 -23 -14 -23 l-316 0 q-14 0 -24 16 l-114 307 q-114 -29 -189.5 -124.5 q-75.5 -95.5 -75.5 -214.5 q0 -133 90.5 -231 q90.5 -98 224.5 -114 l56 -8 q21 0 21 -19 l8 -54 q17 -173 146.5 -290 q129.5 -117 304.5 -117 q174 0 305 117.5 q131 117.5 149 289.5 l8 61 q0 20 18 20 l173 0 q145 0 248 101.5 q103 101.5 103 243.5 q0 136 -96 236 q-96 100 -235 110 q-20 0 -20 20 l0 145 q0 19 20 19 q213 -7 361.5 -161.5 q148.5 -154.5 148.5 -368.5 q0 -139 -70 -261 q122 -118 161 -280 l20 -73 q1 -1 1 -7 q0 -13 -16 -17 l-66 -18 q-92 -27 -156 -89.5 q-64 -62.5 -90.5 -130 q-26.5 -67.5 -25.5 -134.5 q0 -44 11 -91 l12 -65 q4 -16 -15 -25 l-85 -26 q-75 -15 -132 -15 q-59 -1 -120.5 12.5 q-61.5 13.5 -126.5 43 q-65 29.5 -125.5 84 q-60.5 54.5 -105.5 128.5 q-136 -49 -254 -49 q-226 0 -401 140.5 q-175 140.5 -225 358.5 q-177 42 -292 185.5 q-115 143.5 -115 328.5 ZM872 1875.07 q0 25 16.5 50 q16.5 25 48.5 35 q25 5 29 5 q15 0 39 -11 q33 -16 45 -56 l30 -112 q10 -35 -8.5 -67.5 q-18.5 -32.5 -56.5 -43.5 q-35 -10 -67.5 9 q-32.5 19 -43.5 57 l-29 107 l-3 27 ZM1015 1368.07 q0 69 65 80 q22 5 29 5 q60 0 82 -67 l32 -109 q10 -35 -9 -67.5 q-19 -32.5 -57 -43.5 q-36 -11 -68.5 7.5 q-32.5 18.5 -43.5 56.5 l-27 108 q-3 14 -3 30 ZM1314 1546.07 q2 27 19 51.5 q17 24.5 51 36.5 q26 6 35 6 q55 0 76 -72 l26 -109 q11 -37 -6.5 -70 q-17.5 -33 -53.5 -44 q-40 -10 -72.5 9 q-32.5 19 -39.5 57 l-31 110 q0 4 -2 12.5 q-2 8.5 -2 12.5 ZM1440 -42.93 q53 -89 143 -137.5 q90 -48.5 188 -48.5 l23 0 l0 34 q0 102 36 198 q36 96 108.5 177 q72.5 81 171.5 129 q-27 60 -81 110 q-146 -125 -343 -125 l-35 0 q-45 -201 -211 -337 ZM1461 1034.07 q0 69 69 88 q22 4 32 4 q58 0 79 -69 l30 -111 q1 -8 1 -23 q2 -27 -15 -52.5 q-17 -25.5 -52 -35.5 q-2 0 -10.5 -1.5 q-8.5 -1.5 -13.5 -1.5 q-26 0 -51 16.5 q-25 16.5 -35 50.5 l-31 109 q0 1 -1.5 11 q-1.5 10 -1.5 15 Z"></path></symbol><symbol id="uniF02E" viewBox="0 -674 2048 2048"><path d="M1 786 q0 154 59.5 294 q59.5 140 160 241.5 q100.5 101.5 241 161.5 q140.5 60 296.5 60 q205 0 378.5 -101.5 q173.5 -101.5 274 -276 q100.5 -174.5 99.5 -379.5 l0 -104 q0 -25 -26 -25 l-88 -7 q-200 -8 -340 -151 q-140 -143 -146 -346 l-5 -94 q0 -23 -25 -30 l-122 0 q-153 0 -293.5 60.5 q-140.5 60.5 -242 162 q-101.5 101.5 -161.5 241.5 q-60 140 -60 293 ZM196 786 q0 -143 69 -273.5 q69 -130.5 194.5 -215.5 q125.5 -85 276.5 -93 q24 229 181.5 398.5 q157.5 169.5 418.5 223.5 q-17 121 -75.5 223 q-58.5 102 -139.5 167.5 q-81 65.5 -175.5 102 q-94.5 36.5 -187.5 36.5 q-105 0 -206.5 -42.5 q-101.5 -42.5 -180 -115.5 q-78.5 -73 -127 -181 q-48.5 -108 -48.5 -230 Z"></path></symbol><symbol id="uniF04A" viewBox="0 -674 2048 2048"><path d="M0 1411.22 q0 36 27 61 q27 25 66 25 l1985 0 q38 0 64.5 -25 q26.5 -25 26.5 -61 q0 -39 -26 -65.5 q-26 -26.5 -65 -26.5 l-1985 0 q-38 0 -65.5 27 q-27.5 27 -27.5 65 ZM278 1079.22 q0 38 28 63 q22 29 63 29 l1985 0 q37 0 62 -27 q25 -27 25 -65 q0 -37 -25 -62 q-25 -25 -62 -25 l-1985 0 q-38 0 -64.5 25 q-26.5 25 -26.5 62 ZM294 816.22 q-7 24 13 24 l154 0 q9 0 20 -16 q38 -83 113.5 -136 q75.5 -53 165.5 -60 l57 -8 q20 0 20 -19 l6 -53 q17 -172 145.5 -287.5 q128.5 -115.5 302.5 -115.5 q172 0 301 114 q129 114 147 285 l7 61 q0 19 22 19 l169 0 q103 0 187 55 q84 55 125 145 q11 16 23 16 l151 0 q19 0 16 -24 q-35 -89 -49 -113 q116 -104 160 -274 l18 -70 q4 -10 -1.5 -17 q-5.5 -7 -12.5 -7 l-66 -23 q-143 -41 -217.5 -169 q-74.5 -128 -39.5 -273 l14 -62 q8 -15 -14 -25 l-90 -25 q-175 -43 -343 28 q-168 71 -263 226 q-127 -49 -244 -49 q-222 0 -395.5 140 q-173.5 140 -223.5 357 q-135 32 -236.5 129 q-101.5 97 -141.5 232 l0 -5 ZM463 1736.22 q0 38 28 63 q27 29 63 29 l1989 0 q37 0 63 -27 q26 -27 26 -65 q0 -37 -26 -62 q-26 -25 -63 -25 l-1989 0 q-38 0 -64.5 25 q-26.5 25 -26.5 62 ZM1690 107.22 q56 -92 150.5 -142 q94.5 -50 199.5 -40 q-11 167 75 312.5 q86 145.5 237 215.5 q-24 56 -80 114 q-147 -121 -335 -121 l-34 0 q-51 -210 -213 -339 Z"></path></symbol><symbol id="uniF07E" viewBox="0 -674 2048 2048"><path d="M1 730 q0 214 149 367 q149 153 363 163 l735 0 q0 121 46.5 231 q46.5 110 125.5 190 q79 80 189.5 127 q110.5 47 233.5 47 q161 0 297.5 -79.5 q136.5 -79.5 215.5 -216.5 q79 -137 78 -299 l0 -82 q0 -20 -19 -20 l-70 -6 q-138 -5 -241 -93 q113 -145 113 -329 q0 -144 -71 -265 q-71 -121 -193 -190.5 q-122 -69.5 -266 -69.5 l-35 0 q-52 -214 -224.5 -351 q-172.5 -137 -393.5 -137 q-226 0 -401 140 q-175 140 -225 359 q-176 41 -291.5 185.5 q-115.5 144.5 -115.5 328.5 ZM183 730 q0 -133 90.5 -231.5 q90.5 -98.5 224.5 -114.5 l56 0 q21 0 21 -18 l8 -62 q16 -173 145.5 -289.5 q129.5 -116.5 305.5 -116.5 q174 0 305 116.5 q131 116.5 149 289.5 l8 62 q0 18 18 18 l173 0 q142 0 246 103 q104 103 104 243 q0 139 -96.5 241 q-96.5 102 -233.5 109 l-1194 0 q-137 -7 -233.5 -109 q-96.5 -102 -96.5 -241 ZM1707 1260 q166 -4 301 -108 q118 104 290 139 q-18 126 -91.5 223.5 q-73.5 97.5 -169 145.5 q-95.5 48 -194.5 48 q-112 0 -212.5 -56 q-100.5 -56 -164.5 -160.5 q-64 -104.5 -64 -231.5 l305 0 Z"></path></symbol><symbol id="uniF081" viewBox="0 -674 2048 2048"><path d="M-3 1246 q0 155 113.5 268 q113.5 113 268.5 113 l731 0 q155 0 265.5 -111.5 q110.5 -111.5 110.5 -269.5 q0 -78 -22 -132 q105 -67 175 -168 q1 0 1 1 q51 -76 75 -146 q14 -39 23 -78 l19 -73 q1 -2 1 -8 q0 -15 -18 -19 l-76 -22 q-80 -24 -141.5 -70.5 q-61.5 -46.5 -97 -103 q-35.5 -56.5 -53 -115 q-17.5 -58.5 -17.5 -114.5 q0 -52 12 -103 l14 -75 q4 -17 -17 -28 l-97 -30 q-37 -9 -78 -12 q-42 -5 -75 -5 l-3 0 q-58 0 -115 10 q-226 42 -373.5 219.5 q-147.5 177.5 -147.5 410.5 l0 37 q-161 92 -212 266 q-121 38 -193.5 135 q-72.5 97 -72.5 223 ZM208 1246 q0 -67 43 -115.5 q43 -48.5 109 -54.5 l67 -9 q20 0 20 -24 l11 -59 q11 -92 77.5 -154 q66.5 -62 157.5 -62 q93 0 161.5 62 q68.5 62 79.5 154 l9 68 q10 24 27 24 l140 0 q69 0 119.5 50.5 q50.5 50.5 50.5 119.5 q0 71 -50.5 122 q-50.5 51 -119.5 51 l-731 0 q-72 0 -121.5 -50.5 q-49.5 -50.5 -49.5 -122.5 ZM680 563 q11 -144 98 -252 l3 2 q63 -78 154 -120 q91 -42 189 -42 q5 0 13 0.5 q8 0.5 13 0.5 l0 36 q0 176 93.5 332 q93.5 156 259.5 240 q-52 118 -163 187 q-93 -77 -217 -77 q-47 -140 -164.5 -223.5 q-117.5 -83.5 -265.5 -83.5 l-13 0 Z"></path></symbol><symbol id="uniF086" viewBox="0 -674 2048 2048"><path d="M0 1137 q0 143 70 264.5 q70 121.5 191 192.5 q121 71 264 71 l1153 0 q143 0 264.5 -71 q121.5 -71 192.5 -192.5 q71 -121.5 71 -264.5 q0 -16 -1 -24 q-5 -127 -69 -239 q116 -102 160 -274 l19 -72 q2 -4 2 -7 q0 -13 -16 -17 l-66 -23 q-69 -21 -123 -61 q-54 -40 -85 -89 q-31 -49 -46.5 -100 q-15.5 -51 -15.5 -101 q0 -42 11 -92 l15 -64 q7 -15 -15 -24 l-87 -27 q-70 -17 -131 -17 q-59 0 -120 14 q-61 14 -125.5 43.5 q-64.5 29.5 -125 84.5 q-60.5 55 -105.5 130 q-121 -51 -251 -51 q-107 0 -206 34 q-157 53 -269.5 176.5 q-112.5 123.5 -149.5 288.5 q-179 40 -292.5 183 q-113.5 143 -113.5 328 ZM182 1137 q0 -133 89 -230 q89 -97 224 -113 l73 -3 l7 -77 q16 -130 95.5 -231 q79.5 -101 196.5 -146 l0 2 q83 -31 164 -31 q5 0 15.5 1 q10.5 1 15.5 1 q163 13 281 127.5 q118 114.5 134 276.5 l11 80 l190 0 q141 0 243 101.5 q102 101.5 102 241.5 q0 144 -101.5 247 q-101.5 103 -243.5 103 l-1153 0 q-139 0 -241 -104 q-102 -104 -102 -246 ZM1435 272 q54 -88 142 -136.5 q88 -48.5 181 -46.5 q18 0 26 1 l0 26 q0 156 84 297 q84 141 230 210 q-28 64 -81 114 q-139 -126 -338 -126 l-34 0 q-40 -194 -210 -339 Z"></path></symbol></defs></svg>